<svg id="Layer_1" data-name="Layer 1" xmlns="http://www.w3.org/2000/svg" viewBox="0 0 203.3 27.42"><defs><style>.cls-1{fill:#f80040;}.cls-2{fill:#0d98ff;}</style></defs><title>xworld</title><path class="cls-1" d="M85.75,25.71l-6.61-9.25L72.6,25.71H67.45l9-12.42L67.94,1.36h5.11L79.28,10l6.16-8.66h4.9L81.82,13.12,91,25.71Z"/><path class="cls-2" d="M106.55,8.67l-4.13,11.22H99.9L97,12.16l-2.94,7.73H91.54L87.42,8.67H89.9l3,8.28L96,8.67h2.2l3,8.32,3-8.32Z"/><path class="cls-2" d="M111.51,19.3a5.32,5.32,0,0,1-2.13-2.05,5.79,5.79,0,0,1-.77-3,5.73,5.73,0,0,1,.77-3,5.36,5.36,0,0,1,2.13-2,6.84,6.84,0,0,1,6.15,0,5.46,5.46,0,0,1,2.14,2,5.82,5.82,0,0,1,.76,3,5.88,5.88,0,0,1-.76,3,5.41,5.41,0,0,1-2.14,2.05,6.84,6.84,0,0,1-6.15,0ZM117,16.82a3.47,3.47,0,0,0,1-2.54,3.47,3.47,0,0,0-1-2.54,3.43,3.43,0,0,0-4.78,0,3.5,3.5,0,0,0-.93,2.54,3.5,3.5,0,0,0,.93,2.54,3.43,3.43,0,0,0,4.78,0Z"/><path class="cls-2" d="M131.06,8.55v2.5a2.79,2.79,0,0,0-.61-.07,3.18,3.18,0,0,0-2.39.89,3.56,3.56,0,0,0-.86,2.58v5.44h-2.63V8.67h2.5v1.64C127.83,9.13,129.16,8.55,131.06,8.55Z"/><path class="cls-2" d="M134.78,4.3h2.62V19.89h-2.62Z"/><path class="cls-2" d="M153.32,4.3V19.89H150.8V18.44a4,4,0,0,1-1.61,1.19,5.33,5.33,0,0,1-2.11.4,5.85,5.85,0,0,1-2.9-.71,5.08,5.08,0,0,1-2-2,6,6,0,0,1-.74-3,6,6,0,0,1,.74-3,5.12,5.12,0,0,1,2-2,5.85,5.85,0,0,1,2.9-.71,5.37,5.37,0,0,1,2,.37,4.17,4.17,0,0,1,1.58,1.14V4.3ZM149.1,17.36a3.23,3.23,0,0,0,1.2-1.23,4.11,4.11,0,0,0,0-3.7,3.23,3.23,0,0,0-1.2-1.23,3.58,3.58,0,0,0-3.4,0,3.16,3.16,0,0,0-1.2,1.23,4.11,4.11,0,0,0,0,3.7,3.16,3.16,0,0,0,1.2,1.23,3.58,3.58,0,0,0,3.4,0Z"/></svg>